<!--?xml version="1.0" encoding="utf-8"?-->
<svg version="1.1" x="0px" y="0px" id="iconz074230039911000" viewBox="0 0 512 512" xmlns="http://www.w3.org/2000/svg" style="enable-background:new 0 0 512 512;" xml:space="preserve"><style type="text/css">
.baseF{fill:#FFFFFF}
.baseB{fill:#000000}
.eyeF{fill:#FFFFFF}
.eyeB{fill:#000000}
.eyeT{fill:#C6C6C6}
.hairF{fill:#FFFFFF}
.hairB{fill:#000000}
.hairU{fill:#767676}
.hairT{fill:#C6C6C6}
.noseF{fill:#FFFFFF}
.noseB{fill:#000000}
.noseU{fill:#767676}
.mayugeB{fill:#000000}
.mayugeU{fill:#767676}
.mayugeT{fill:#C6C6C6}
.mayugeF{fill:#FFFFFF}
.mouthF{fill:#FFFFFF}
.mouthB{fill:#000000}
.mouthT{fill:#C6C6C6}
.mouthU{fill:#767676}
.hatF{fill:#FFFFFF}
.hatB{fill:#000000}
.hatU{fill:#767676}
.hatT{fill:#C6C6C6}
.higeU{fill:#767676}
.higeB{fill:#000000}
.higeF{fill:#FFFFFF}
.bodyF{fill:#FFFFFF}
.bodyB{fill:#000000}
.bodyU{fill:#767676}
.bodyT{fill:#C6C6C6}
.bodyS{fill:#E4E4E4}
.bodyH{fill:#FFFFFF}
.glassF{fill:#FFFFFF}
.glassB{fill:#000000}
.glassT{fill:#C6C6C6}
.glassU{fill:#767676}
.kirakiraF{fill:#FFFFFF}
.kirakiraB{fill:#000000}
.kirakiraU{fill:#767676}
.kirakiraT{fill:#C6C6C6}
.kirakiraH{fill:#FFFFFF}
.backF{fill:#FFFFFF}
.backB{fill:#000000}
.backU{fill:#767676}
.backS{fill:#E4E4E4}
.backA{fill:#FFE38B}
.backG{fill:#EEEEEF}
.backC{fill:#19DB9F}
.backD{fill:#DBBCA1}
</style>
<g class="icosvg">
<g>
	<g>
		<path class="bodyT" d="M496.063,632.966H15.944c3.912-32.375,18.695-147.048,33.72-173.736
			c23.616-41.927,58.752-76.464,58.752-76.464c0-55.656,9.023-281.064,142.175-281.064h10.8c133.177,0,142.2,225.408,142.2,281.064
			l0.217,0.216c1.104,1.104,6.023,6.048,12.887,13.777c12.409,13.896,31.2,36.792,45.649,62.471
			C477.367,485.918,492.152,600.59,496.063,632.966z" style="fill: rgb(198, 198, 198);"></path>
		<path class="bodyF" d="M361.042,196.738v154.5c-9.293,66.127-103.509,119.109-103.509,119.109h-3.066
			c0,0-94.216-52.983-103.509-119.109v-154.5H361.042z" style="fill: rgb(255, 255, 255);"></path>
		<path class="bodyH" d="M341.552,222.118v125.836c-7.568,53.859-84.302,97.01-84.302,97.01h-2.498c0,0-76.734-43.151-84.302-97.01
			V222.118H341.552z" style="fill: rgb(255, 255, 255);"></path>
		<polygon class="bodyU" points="400.159,565.166 406.567,632.966 102.775,632.966 107.839,600.518 187.591,580.214 303.559,510.11 
			403.591,382.766 403.808,382.981 416.695,396.758 323.095,520.958 		" style="fill: rgb(118, 118, 118);"></polygon>
		<g>
			<path class="bodyB" d="M176.151,141.293c23.016-25.949,50.139-35.988,85.249-34.32c52.27-0.551,85.752,38.563,104.66,84.264h-5.018
				H145.914C153.944,172.279,163.893,155.054,176.151,141.293z M208.67,430.445c-23.048-20.277-47.697-48.556-52.213-79.675V202.237
				h199.084v148.532c-8.517,50.186-60.825,90.161-99.485,114.077h-0.114C250.853,461.865,230.021,449.233,208.67,430.445z
				 M299.995,506.088l-114.469,69.214l-3.861,0.983c28.066-34.428,51.369-70.819,79.279-101.555
				c33.636-19.114,99.822-70.596,105.599-123.108V192.378c23.424,53.626,32.011,138.41,31.768,188.58L299.995,506.088z
				 M473.911,474.47c-2.208-7.296-4.464-13.32-6.984-17.831c-13.679-24.265-30.983-45.913-43.416-60.144l0.072-0.121l-3.023-3.216
				c-5.377-6.023-9.552-10.392-11.688-12.552c0.288-76.177-17.473-285.504-147.48-284.184
				c-137.76-8.231-156.96,188.496-158.256,284.184c-6.6,6.912-54.431,56.832-65.04,93.864
				C27.608,505.31,14.023,604.19,10.519,632.966h10.679c3.553-29.496,13.969-103.512,21.553-134.375
				c3.023-12.936,6.383-27.025,11.52-36.769c13.56-23.423,27.84-42.336,43.392-59.783c5.184-5.832,10.512-11.473,16.008-17.065
				c-0.984-32.688,5.496-133.704,31.777-192.648v159.288c7.847,53.28,63.071,96.671,102.312,121.152
				c-8.496,9.673-16.848,20.616-25.273,31.752c-4.775-3-21.096-13.536-39-28.896c-10.368-8.879-21.239-19.392-30.671-30.864
				c-9.456-11.473-17.425-23.952-22.129-36.673c-1.775-4.487-6.816-4.368-9.288-1.751c-1.223,1.32-1.823,3.239-1.031,5.543
				c7.896,21.24,23.423,41.208,41.136,58.584c17.712,17.352,37.631,32.112,54.335,42.864c-15.456,20.64-33.095,44.521-51.96,67.488
				l-53.568,13.632l3-42.192c0.216-3.048-2.064-5.664-5.088-5.88c-3.025-0.216-5.664,2.065-5.879,5.088l-5.784,81.504h11.568
				l4.392-28.2l77.112-19.631l117.456-71.017l96.865-123.264l5.856,6.264l-94.536,125.425l79.896,45.839l6.048,64.057l0.048,0.527
				h11.016l-5.784-81.504c-0.216-3.023-2.856-5.304-5.879-5.088c-3.025,0.217-5.329,2.832-5.112,5.88l0.312,4.32l-64.921-37.223
				l86.113-114.24c12.023,13.896,28.127,34.296,40.727,56.712c1.848,3.264,4.009,8.808,6.073,15.721
				c13.031,46.583,20.831,107.16,26.904,155.423h10.727C497.719,601.334,484.304,505.55,473.911,474.47z" style="fill: rgb(0, 0, 0);"></path>
			<path class="bodyB" d="M102.367,523.756c0.192,0.452,0.336,0.798,0.43,1.028l0.104,0.253l0.027,0.068
				c1.076,2.708,4.144,4.031,6.853,2.955c2.708-1.077,4.031-4.145,2.955-6.853c-0.061-0.149-3.442-8.648-9.601-19.697
				c-6.176-11.047-15.07-24.654-26.536-35.073c-2.16-1.958-5.496-1.794-7.453,0.366c-1.958,2.159-1.794,5.495,0.366,7.453
				c10.09,9.128,18.582,21.925,24.405,32.395c2.919,5.234,5.189,9.885,6.718,13.208C101.402,521.521,101.982,522.85,102.367,523.756
				z" style="fill: rgb(0, 0, 0);"></path>
			<polygon class="bodyB" points="69.513,474.256 69.513,474.256 69.511,474.255 			" style="fill: rgb(0, 0, 0);"></polygon>
			<path class="bodyB" d="M431.39,466.439l-0.001-0.001c-11.464,10.419-20.36,24.026-26.536,35.073
				c-6.159,11.048-9.54,19.548-9.6,19.696c-1.078,2.708,0.245,5.776,2.954,6.854c2.708,1.077,5.776-0.246,6.854-2.954l0.026-0.069
				c0.338-0.837,3.724-9.096,9.538-19.375c5.8-10.277,14.079-22.564,23.852-31.407c2.157-1.958,2.321-5.295,0.364-7.452
				C436.884,464.645,433.547,464.48,431.39,466.439z" style="fill: rgb(0, 0, 0);"></path>
			<path class="bodyB" d="M258.427,449.443l1.017-0.574c0.163-0.096,19.555-10.996,40.058-28.834
				c10.253-8.926,20.79-19.589,29.336-31.607c8.532-12.014,15.114-25.424,17.149-39.852l0.043-0.305V217.638h-4.479H165.968v130.623
				l0.043,0.315c2.036,14.428,8.617,27.838,17.149,39.852c12.82,18.02,30.113,33.022,44.222,43.624
				c14.109,10.591,25.051,16.747,25.172,16.816l1.02,0.574H258.427z M216.524,411.645c-9.584-8.518-19.207-18.533-26.801-29.462
				c-7.555-10.86-13.062-22.584-14.796-34.611V226.597h162.144v120.974c-1.789,12.417-7.605,24.514-15.537,35.667
				c-11.954,16.839-28.631,31.4-42.298,41.65c-6.832,5.129-12.908,9.19-17.262,11.959c-2.176,1.384-3.922,2.446-5.116,3.157
				c-0.311,0.185-0.579,0.343-0.813,0.48h-0.093C251.723,438.007,234.221,427.389,216.524,411.645z" style="fill: rgb(0, 0, 0);"></path>
		</g>
		<path class="bodyF" d="M148.448,493.583h-2.4c-0.002,2.508-1.011,4.758-2.654,6.404c-1.646,1.643-3.896,2.652-6.404,2.654
			c-2.509-0.002-4.758-1.01-6.404-2.653c-1.643-1.648-2.651-3.896-2.653-6.405c0.002-2.51,1.01-4.759,2.653-6.404
			c1.645-1.643,3.894-2.651,6.404-2.653c2.509,0.002,4.758,1.01,6.405,2.653c1.643,1.646,2.651,3.895,2.653,6.404H148.448h2.399
			c-0.001-7.656-6.204-13.855-13.857-13.856c-7.655,0.001-13.855,6.202-13.856,13.856c0.001,7.654,6.2,13.856,13.856,13.857
			c7.654-0.001,13.856-6.204,13.857-13.857H148.448z" style="fill: rgb(255, 255, 255);"></path>
		<path class="bodyF" d="M450.281,555.931h-2.4c-0.002,2.508-1.011,4.758-2.654,6.404c-1.646,1.643-3.896,2.652-6.404,2.654
			c-2.509-0.002-4.758-1.01-6.404-2.653c-1.643-1.648-2.651-3.896-2.653-6.405c0.002-2.51,1.01-4.759,2.653-6.404
			c1.645-1.643,3.894-2.651,6.404-2.653c2.509,0.002,4.758,1.01,6.405,2.653c1.643,1.646,2.651,3.895,2.653,6.404H450.281h2.399
			c-0.001-7.656-6.204-13.855-13.857-13.856c-7.655,0.001-13.855,6.202-13.856,13.856c0.001,7.654,6.2,13.856,13.856,13.857
			c7.654-0.001,13.856-6.204,13.857-13.857H450.281z" style="fill: rgb(255, 255, 255);"></path>
		<path class="bodyF" d="M295.422,491.038h-2.4c-0.002,2.508-1.011,4.758-2.654,6.404c-1.646,1.643-3.896,2.652-6.404,2.654
			c-2.508-0.002-4.757-1.01-6.403-2.654c-1.643-1.646-2.652-3.896-2.654-6.404c0.002-2.509,1.01-4.758,2.653-6.404
			c1.646-1.643,3.896-2.651,6.404-2.653c2.509,0.002,4.758,1.01,6.405,2.653c1.643,1.646,2.651,3.895,2.653,6.404H295.422h2.399
			c-0.001-7.656-6.204-13.855-13.857-13.856c-7.652,0.001-13.855,6.2-13.856,13.856c0.001,7.654,6.203,13.856,13.856,13.857
			c7.654-0.001,13.856-6.204,13.857-13.857H295.422z" style="fill: rgb(255, 255, 255);"></path>
		<path class="bodyF" d="M73.056,581.129h-2.4c-0.002,2.508-1.01,4.757-2.653,6.403c-1.648,1.643-3.896,2.651-6.405,2.653
			c-2.51-0.002-4.759-1.01-6.404-2.653c-1.643-1.645-2.651-3.894-2.653-6.403c0.002-2.51,1.01-4.759,2.653-6.407
			c1.646-1.643,3.895-2.651,6.404-2.653c2.508,0.002,4.758,1.011,6.404,2.654c1.643,1.646,2.652,3.896,2.654,6.405H73.056h2.399
			c-0.001-7.655-6.204-13.857-13.857-13.859c-7.656,0.001-13.855,6.204-13.856,13.859c0.001,7.654,6.202,13.854,13.856,13.855
			c7.654-0.001,13.856-6.2,13.857-13.855H73.056z" style="fill: rgb(255, 255, 255);"></path>
	</g>
</g>


<g>
	<path class="baseF" d="M370.823,211.357h-1.083C365.238,142.073,331.823,86.564,256,86.564s-109.235,55.509-113.737,124.793h-1.085   c-14.836-8.773-36.38,8.077-32.986,28.423c7.118,42.713,9.938,53.304,22.627,59.716c6.476,3.272,12.413,3.387,12.413,3.387h1.277   c4.228,26.866,6.867,49.193,17.695,64.277c16.545,23.046,64.882,38.454,93.797,38.454s76.064-13.697,92.609-36.743   c10.83-15.084,14.658-39.122,18.884-65.988h1.277c0,0,5.937-0.115,12.415-3.387c12.689-6.413,15.506-17.004,22.627-59.716   C407.203,219.434,385.661,202.584,370.823,211.357z" style="fill: rgb(255, 255, 255);"></path>
	<path class="baseB" d="M400.203,213.073c-2.749-2.844-5.951-5.161-9.439-6.793c-3.486-1.629-7.276-2.577-11.159-2.578   c-1.593-0.003-3.197,0.207-4.788,0.548c-0.709-10.963-1.964-21.599-3.982-31.737c-2.592-13.007-6.417-25.216-11.912-36.261   c-8.221-16.56-20.314-30.502-37.257-40.1c-16.937-9.614-38.527-14.868-65.66-14.865c-24.123-0.001-43.85,4.145-59.844,11.824   c-11.989,5.752-21.836,13.498-29.734,22.764c-11.862,13.907-19.331,31.12-23.852,50.203c-2.851,12.045-4.536,24.861-5.395,38.17   c-1.589-0.34-3.19-0.549-4.778-0.546c-3.884,0.001-7.673,0.949-11.16,2.578c-5.23,2.452-9.827,6.427-13.198,11.445   c-3.361,5.013-5.486,11.134-5.486,17.766c-0.001,1.697,0.139,3.425,0.434,5.168l0.097,0.578l-0.098-0.589   c3.582,21.412,6.03,34.841,9.468,44.399c1.725,4.772,3.763,8.644,6.442,11.822c2.67,3.181,5.926,5.521,9.543,7.338   c3.469,1.74,6.725,2.704,9.294,3.247c0.913,10.589,2.318,19.564,4.25,27.457c3.735,15.32,9.57,26.55,17.121,37.039   c9.155,12.7,23.832,22.286,40.907,28.863c17.093,6.558,36.679,10.074,55.988,10.08c0.001,0,0.002,0,0.002,0l0,0   c19.309-0.006,38.896-3.522,55.99-10.08c17.074-6.577,31.752-16.162,40.904-28.863c7.554-10.489,13.389-21.719,17.123-37.039   c1.931-7.893,3.336-16.868,4.249-27.457c2.569-0.542,5.827-1.507,9.296-3.246c3.616-1.817,6.873-4.157,9.543-7.339   c2.005-2.378,3.661-5.163,5.084-8.407c2.133-4.876,3.798-10.804,5.476-18.525c1.673-7.721,3.342-17.25,5.35-29.288l0.001-0.009   c0.287-1.735,0.424-3.455,0.423-5.145C409.438,226.637,405.685,218.747,400.203,213.073z M398.611,238.913   c-3.537,21.3-6.057,34.523-8.982,42.541c-1.454,4.017-2.946,6.664-4.587,8.611c-1.65,1.943-3.504,3.331-6.232,4.721   c-1.298,0.657-2.584,1.16-3.786,1.552c0.356-7.152,0.533-14.976,0.534-23.6c0-2.914-2.363-5.276-5.276-5.276   c-2.914,0-5.276,2.362-5.276,5.276c0.001,10.329-0.261,19.417-0.776,27.497c-0.071,1.682-0.241,3.044-0.335,4.625   c-0.872,10.927-2.25,19.909-4.123,27.537c-3.466,14.059-8.466,23.642-15.445,33.397c-7.392,10.346-20.354,19.132-36.116,25.165   c-15.742,6.052-34.187,9.384-52.206,9.379c-18.02,0.006-36.465-3.327-52.206-9.379c-15.762-6.033-28.724-14.819-36.117-25.165   c-6.979-9.754-11.978-19.337-15.444-33.397c-1.873-7.629-3.252-16.611-4.124-27.539c-0.069-1.518-0.199-2.398-0.334-4.622   c-0.514-8.081-0.777-17.169-0.776-27.499c0-2.914-2.362-5.276-5.276-5.276s-5.276,2.362-5.276,5.276   c0.001,8.623,0.177,16.444,0.534,23.595c-1.206-0.391-2.487-0.886-3.785-1.546c-2.728-1.389-4.582-2.778-6.232-4.721   c-1.235-1.465-2.374-3.308-3.489-5.845c-1.672-3.797-3.231-9.136-4.827-16.52c-1.602-7.384-3.255-16.799-5.254-28.787l-0.001-0.011   c-0.196-1.158-0.287-2.294-0.288-3.41c-0.007-5.799,2.494-11.165,6.28-15.085c1.884-1.952,4.071-3.516,6.319-4.565   c2.25-1.052,4.545-1.587,6.691-1.585c1.491,0.004,2.906,0.266,4.276,0.788c-0.141,4.309-0.226,8.648-0.226,13.034   c0,2.914,2.363,5.277,5.277,5.277c2.913,0,5.277-2.363,5.277-5.277h0.001c-0.001-18.982,1.252-37.108,4.52-53.502   c2.449-12.297,6.029-23.612,11.011-33.621c7.494-15.02,18.028-27.097,33.019-35.624c14.996-8.511,34.646-13.486,60.451-13.49   c22.932,0.001,41.018,3.938,55.275,10.784c10.698,5.142,19.284,11.914,26.275,20.1c10.471,12.269,17.358,27.831,21.611,45.785   c4.253,17.941,5.842,38.212,5.839,59.567c0,2.914,2.362,5.277,5.277,5.277c2.913,0,5.277-2.363,5.277-5.277   c-0.001-4.385-0.076-8.729-0.216-13.038c1.365-0.519,2.776-0.78,4.262-0.784c2.146-0.001,4.44,0.533,6.689,1.585   c3.375,1.57,6.598,4.315,8.897,7.759c2.307,3.449,3.701,7.533,3.701,11.893C398.891,236.612,398.801,237.752,398.611,238.913z" style="fill: rgb(0, 0, 0);"></path>
	<path class="baseB" d="M277.501,382.21c-2.212,0.889-5.436,1.687-9.192,2.23c-3.758,0.547-8.064,0.855-12.534,0.854   c-7.286,0.004-15.02-0.824-21.583-2.665c-1.63-0.456-3.318,0.495-3.774,2.124s0.495,3.318,2.124,3.774h-0.001   c7.293,2.037,15.492,2.888,23.234,2.891c4.75,0,9.324-0.324,13.416-0.919c4.094-0.599,7.691-1.452,10.583-2.604   c1.57-0.627,2.334-2.409,1.706-3.98C280.853,382.346,279.071,381.583,277.501,382.21z" style="fill: rgb(0, 0, 0);"></path>
</g>

<g>
	<path class="higeB" d="M345.347,329.546c-0.292-1.568-2.432-1.888-3.114-0.446c-3.889,8.22-18.566,10.298-27.205,7.23
		c-7.856-2.79-15.712-10.614-29.189-14.034c-9.761-2.477-24.749-1.764-29.839,15.896c-5.089-17.66-20.078-18.374-29.839-15.896
		c-13.476,3.421-21.332,11.244-29.188,14.034c-8.639,3.068-23.316,0.989-27.205-7.23c-0.682-1.441-2.822-1.121-3.114,0.446
		c-1.853,9.957,3.18,16.424,7.593,21.056c11.758,12.339,37.146,8.504,51.915-0.773c15.789-9.92,29.839,6.016,29.839,6.016
		s14.049-15.936,29.839-6.016c14.769,9.278,40.157,13.112,51.915,0.773C342.167,345.969,347.2,339.503,345.347,329.546z" style="fill: rgb(0, 0, 0);"></path>
</g>


<g>
	<path class="mouthB" d="M281.371,345.627c-3.338,3.246-16.347,5.354-26.05,5.354c-9.703,0-22.712-2.108-26.05-5.354
		c-2.753-2.677-4.397,0.956-1.912,4.206c2.486,3.25,13.575,8.073,27.962,8.073c14.387,0,25.476-4.823,27.962-8.073
		C285.768,346.583,284.124,342.95,281.371,345.627z" style="fill: rgb(0, 0, 0);"></path>
</g>


<g>
	<path class="noseB" d="M265.128,318.582c0,2.602-3.748,4.711-8.367,4.711c-4.622,0-8.37-2.109-8.37-4.711s3.748,0,8.37,0
		C261.381,318.582,265.128,315.981,265.128,318.582z" style="fill: rgb(0, 0, 0);"></path>
</g>


<g>
	<g>
		<path class="eyeB" d="M285.934,270.074c3.359-0.984,9.835-0.678,16.727,1.605c6.21,2.058,12.378,5.251,15.25,8.274
			c3.601,3.79,2.748,7.174-1.393,6.157c-7.059-1.734-19.074-7.323-28.851-8.922C283.431,276.495,280.74,271.596,285.934,270.074z" style="fill: rgb(0, 0, 0);"></path>
		<path class="eyeB" d="M226.067,270.074c-3.359-0.984-9.835-0.678-16.727,1.605c-6.21,2.058-12.378,5.251-15.25,8.274
			c-3.601,3.79-2.748,7.174,1.393,6.157c7.059-1.734,19.074-7.323,28.851-8.922C228.57,276.495,231.261,271.596,226.067,270.074z" style="fill: rgb(0, 0, 0);"></path>
	</g>
</g>


<g>
	<g>
		<g>
			<path class="mayugeB" d="M234.749,239.255l-33.594-15.261c-1.555-0.707-3.392-0.266-4.458,1.069l-10.284,12.881
				c-1.715,2.148-0.2,5.329,2.549,5.351l44.818,0.353C236.263,243.668,237.01,240.282,234.749,239.255z" style="fill: rgb(0, 0, 0);"></path>
		</g>
		<g>
			<path class="mayugeB" d="M277.252,239.255l33.594-15.261c1.555-0.707,3.392-0.266,4.458,1.069l10.284,12.881
				c1.715,2.148,0.2,5.329-2.549,5.351l-44.818,0.353C275.737,243.668,274.991,240.282,277.252,239.255z" style="fill: rgb(0, 0, 0);"></path>
		</g>
	</g>
</g>

</g></svg>